<svg xmlns="http://www.w3.org/2000/svg" xmlns:xlink="http://www.w3.org/1999/xlink" width="1082" zoomAndPan="magnify" viewBox="0 0 811.5 540.000001" height="720" preserveAspectRatio="xMidYMid meet" version="1.0"><defs><clipPath id="eeb2e634b7"><path d="M 44.480469 242 L 84 242 L 84 259 L 44.480469 259 Z M 44.480469 242 " clip-rule="nonzero"/></clipPath></defs><path fill="#063a1c" d="M 339.457031 292.144531 L 326.316406 292.144531 L 326.316406 229.550781 C 326.316406 228.667969 326.316406 227.640625 325.875 226.464844 C 325.585938 225.289062 325.007812 224.261719 324.140625 223.378906 C 323.273438 222.355469 321.976562 221.613281 320.242188 220.882812 C 318.507812 220.152344 316.203125 219.859375 313.3125 219.859375 C 310.421875 219.859375 308.117188 220.152344 306.234375 220.882812 C 304.347656 221.613281 303.0625 222.355469 302.046875 223.378906 C 301.039062 224.261719 300.460938 225.289062 300.171875 226.464844 C 299.882812 227.640625 299.730469 228.527344 299.730469 229.410156 L 299.730469 292.15625 L 286.589844 292.15625 L 286.589844 229.703125 C 286.589844 228.820312 286.589844 227.792969 286.152344 226.617188 C 285.863281 225.441406 285.285156 224.414062 284.414062 223.53125 C 283.546875 222.507812 282.253906 221.765625 280.515625 221.035156 C 278.78125 220.304688 276.480469 220.011719 273.585938 220.011719 C 270.695312 220.011719 268.390625 220.304688 266.507812 221.035156 C 264.621094 221.765625 263.335938 222.507812 262.320312 223.53125 C 261.3125 224.414062 260.734375 225.441406 260.445312 226.617188 C 260.15625 227.792969 260.003906 228.679688 260.003906 229.5625 L 260.003906 292.15625 L 247.011719 292.15625 L 247.011719 227.359375 C 247.011719 226.039062 247.164062 224.414062 247.589844 222.363281 C 248.03125 220.304688 249.039062 218.101562 250.910156 216.042969 C 252.648438 213.980469 255.238281 212.074219 258.847656 210.601562 C 262.308594 209.128906 267.226562 208.246094 273.425781 208.246094 C 279.628906 208.246094 282.382812 208.691406 285.550781 209.71875 C 288.722656 210.742188 291.175781 211.921875 293.199219 213.390625 C 295.222656 211.921875 297.675781 210.742188 300.847656 209.71875 C 304.019531 208.691406 308.066406 208.246094 312.972656 208.246094 C 317.878906 208.246094 323.941406 208.976562 327.550781 210.601562 C 331.011719 212.074219 333.761719 213.980469 335.488281 216.042969 C 337.222656 218.101562 338.378906 220.304688 338.808594 222.363281 C 339.246094 224.566406 339.386719 226.191406 339.386719 227.359375 L 339.386719 292.15625 Z M 339.457031 292.144531 " fill-opacity="1" fill-rule="nonzero"/><path fill="#063a1c" d="M 407.3125 271.429688 L 407.3125 273.925781 C 407.3125 275.246094 407.160156 276.871094 406.734375 278.921875 C 406.292969 280.980469 405.289062 283.183594 403.414062 285.246094 C 401.675781 287.304688 399.085938 289.210938 395.476562 290.683594 C 392.015625 292.15625 387.101562 293.039062 380.898438 293.039062 C 374.695312 293.039062 369.929688 292.308594 366.320312 290.683594 C 362.859375 289.210938 360.109375 287.304688 358.382812 285.246094 C 356.648438 283.183594 355.492188 280.980469 355.0625 278.921875 C 354.625 276.71875 354.484375 275.09375 354.484375 273.925781 L 354.484375 227.335938 C 354.484375 226.160156 354.632812 224.546875 355.0625 222.34375 C 355.5 220.140625 356.507812 218.082031 358.382812 216.019531 C 360.117188 213.960938 362.710938 212.050781 366.320312 210.582031 C 369.78125 209.109375 374.695312 208.226562 380.898438 208.226562 C 387.101562 208.226562 391.867188 208.957031 395.476562 210.582031 C 398.933594 212.050781 401.6875 213.960938 403.414062 216.019531 C 405.148438 218.082031 406.304688 220.285156 406.734375 222.34375 C 407.171875 224.40625 407.3125 226.171875 407.3125 227.335938 Z M 394.167969 269.816406 L 394.167969 229.691406 C 394.167969 225.480469 392.722656 224.546875 391.855469 223.519531 C 390.847656 222.636719 389.542969 221.757812 387.816406 221.023438 C 386.082031 220.292969 383.628906 220 380.738281 220 C 377.847656 220 375.683594 220.292969 373.957031 221.023438 C 372.234375 221.757812 370.925781 222.496094 370.058594 223.519531 C 369.191406 224.546875 367.894531 225.59375 367.894531 229.691406 L 367.894531 271.277344 C 367.894531 272.160156 367.894531 273.1875 368.335938 274.222656 C 368.625 275.398438 369.203125 276.421875 370.070312 277.449219 C 370.9375 278.472656 372.382812 279.355469 373.96875 279.945312 C 375.703125 280.675781 377.867188 280.972656 380.75 280.972656 C 383.628906 280.972656 386.09375 280.675781 387.828125 279.945312 C 389.5625 279.214844 391 278.472656 391.867188 277.449219 C 392.875 276.566406 393.453125 275.539062 393.742188 274.363281 C 394.03125 273.1875 394.179688 272.300781 394.179688 271.277344 L 394.179688 269.511719 L 394.179688 269.804688 Z M 394.167969 269.816406 " fill-opacity="1" fill-rule="nonzero"/><path fill="#063a1c" d="M 475.164062 292.136719 L 462.023438 292.136719 L 462.023438 230.121094 C 462.023438 229.238281 462.023438 228.210938 461.585938 227.035156 C 461.296875 225.855469 460.71875 224.832031 459.851562 223.949219 C 458.984375 222.921875 457.535156 222.183594 455.953125 221.449219 C 454.214844 220.71875 452.050781 220.425781 449.171875 220.425781 C 446.289062 220.425781 443.976562 220.71875 442.089844 221.449219 C 440.207031 222.183594 438.921875 222.921875 437.902344 223.949219 C 436.898438 224.832031 436.316406 225.855469 436.027344 227.035156 C 435.738281 228.210938 435.589844 229.09375 435.589844 229.976562 L 435.589844 292.144531 L 422.449219 292.144531 L 422.449219 227.773438 C 422.449219 226.457031 422.597656 224.832031 423.027344 222.78125 C 423.457031 220.71875 424.613281 218.519531 426.347656 216.457031 C 428.082031 214.398438 430.824219 212.488281 434.285156 211.015625 C 437.742188 209.546875 442.660156 208.664062 448.863281 208.664062 C 455.0625 208.664062 459.828125 209.394531 463.441406 211.015625 C 466.898438 212.488281 469.5 214.398438 471.375 216.457031 C 473.113281 218.519531 474.269531 220.71875 474.546875 222.78125 C 474.988281 224.984375 475.125 226.605469 475.125 227.773438 L 475.125 292.144531 Z M 475.164062 292.136719 " fill-opacity="1" fill-rule="nonzero"/><path fill="#063a1c" d="M 517.464844 208.234375 C 523.675781 208.234375 527.855469 208.683594 531.464844 210.296875 C 534.921875 211.769531 537.675781 213.675781 539.402344 215.738281 C 541.136719 217.796875 542.292969 220 542.722656 222.058594 C 543.160156 224.261719 543.300781 225.886719 543.300781 227.054688 L 543.300781 234.695312 C 543.300781 236.464844 543.011719 238.523438 542.292969 240.726562 C 541.574219 242.929688 539.980469 245.285156 537.527344 247.78125 C 536.371094 249.101562 535.074219 249.984375 533.628906 250.570312 C 532.179688 251.160156 530.886719 251.75 529.730469 252.042969 C 528.433594 252.488281 526.988281 252.632812 525.539062 252.632812 L 513.84375 252.632812 C 511.101562 252.632812 508.789062 253.65625 506.765625 255.574219 C 504.742188 257.636719 503.734375 259.980469 503.734375 262.925781 L 503.734375 269.980469 C 503.734375 272.476562 504.171875 274.535156 505.179688 276.007812 C 505.617188 276.738281 506.046875 277.328125 506.625 277.914062 C 507.203125 278.503906 507.921875 278.941406 508.9375 279.386719 C 509.804688 279.832031 510.8125 280.117188 512.109375 280.566406 C 513.40625 280.859375 515.140625 281.011719 517.164062 281.011719 C 519.1875 281.011719 521.929688 280.71875 523.515625 280.128906 C 525.101562 279.539062 526.117188 279.101562 526.835938 278.65625 C 528.132812 277.632812 529.148438 276.300781 529.578125 274.828125 C 530.15625 273.359375 530.296875 271.746094 530.296875 270.128906 L 543.4375 270.128906 L 543.4375 273.957031 C 543.4375 276.75 542.859375 279.398438 541.703125 281.894531 C 540.546875 284.25 538.671875 286.453125 536.21875 288.21875 C 534.484375 289.539062 532.03125 290.574219 529 291.597656 C 525.96875 292.480469 521.921875 293.070312 517.304688 293.070312 C 512.6875 293.070312 510.804688 292.773438 508.210938 292.1875 C 505.609375 291.597656 503.445312 290.867188 501.429688 289.984375 C 499.554688 289.101562 497.96875 288.078125 496.664062 286.898438 C 495.367188 285.722656 494.351562 284.542969 493.632812 283.375 C 491.757812 280.585938 490.890625 277.5 491.03125 273.96875 L 491.03125 227.390625 C 491.03125 226.070312 491.179688 224.445312 491.609375 222.394531 C 492.039062 220.34375 493.054688 218.132812 494.929688 216.070312 C 496.664062 214.011719 499.257812 212.101562 502.867188 210.632812 C 506.328125 209.160156 511.242188 208.277344 517.445312 208.277344 Z M 530.027344 231.011719 L 530.027344 229.539062 C 530.027344 228.65625 530.027344 227.632812 529.589844 226.457031 C 529.300781 225.277344 528.722656 224.253906 527.855469 223.371094 C 526.988281 222.34375 525.539062 221.605469 523.957031 220.871094 C 522.21875 220.140625 520.058594 219.847656 517.175781 219.847656 C 514.292969 219.847656 511.980469 220.140625 510.09375 220.871094 C 508.210938 221.605469 506.925781 222.34375 505.90625 223.371094 C 504.902344 224.253906 504.320312 225.277344 504.03125 226.457031 C 503.742188 227.632812 503.59375 228.515625 503.59375 229.398438 L 503.59375 245.863281 C 503.742188 244.980469 504.3125 244.097656 505.039062 243.507812 C 505.757812 242.917969 506.625 242.480469 507.492188 242.1875 C 508.359375 241.894531 509.367188 241.597656 510.234375 241.597656 C 511.101562 241.597656 511.820312 241.445312 512.398438 241.445312 L 521.203125 241.445312 C 523.515625 241.445312 525.679688 240.5625 527.414062 238.796875 C 529.148438 237.03125 530.019531 234.972656 530.019531 232.625 L 530.019531 231.011719 Z M 530.027344 231.011719 " fill-opacity="1" fill-rule="nonzero"/><path fill="#063a1c" d="M 589.796875 280.382812 L 589.796875 292.136719 C 583.582031 292.136719 578.816406 291.40625 575.21875 289.78125 C 571.757812 288.308594 569.003906 286.402344 567.28125 284.339844 C 565.40625 282.28125 564.386719 280.078125 563.960938 278.015625 C 563.519531 275.816406 563.382812 274.191406 563.382812 273.023438 L 563.382812 219.828125 L 553.421875 219.828125 L 553.421875 208.660156 L 563.382812 208.660156 L 563.382812 187.652344 L 576.523438 187.652344 L 576.523438 208.660156 L 589.804688 208.660156 L 589.804688 219.828125 L 576.523438 219.828125 L 576.523438 270.382812 C 576.523438 271.265625 576.523438 272.292969 576.960938 273.46875 C 577.25 274.648438 577.828125 275.671875 578.695312 276.695312 C 579.566406 277.722656 581.011719 278.605469 582.597656 279.347656 C 584.332031 280.078125 586.496094 280.371094 589.375 280.371094 L 589.816406 280.371094 Z M 589.796875 280.382812 " fill-opacity="1" fill-rule="nonzero"/><path fill="#063a1c" d="M 626.898438 208.226562 C 635.992188 208.226562 642.632812 209.992188 646.820312 213.667969 C 651.007812 217.339844 653.171875 221.898438 653.171875 227.339844 L 653.171875 273.925781 C 653.171875 275.835938 652.882812 277.894531 652.164062 280.097656 C 651.445312 282.300781 650.140625 284.359375 648.265625 286.269531 C 646.390625 288.175781 643.648438 289.792969 640.179688 290.96875 C 636.71875 292.289062 632.382812 292.878906 626.898438 292.878906 C 621.414062 292.878906 616.9375 292.289062 613.617188 290.96875 C 610.15625 289.648438 607.554688 288.175781 605.527344 286.269531 C 603.503906 284.359375 602.207031 282.300781 601.628906 280.097656 C 600.914062 277.894531 600.625 275.835938 600.625 273.925781 L 600.625 266.578125 C 600.625 262.609375 601.628906 258.933594 603.65625 255.699219 C 605.679688 252.46875 608.558594 250.113281 612.167969 248.796875 C 614.042969 248.207031 616.207031 247.476562 618.519531 246.59375 C 620.835938 245.710938 623.136719 244.980469 625.453125 244.097656 C 627.617188 243.363281 629.640625 242.625 631.226562 242.035156 C 632.8125 241.445312 633.96875 241.011719 634.257812 240.859375 C 634.695312 240.707031 635.265625 240.410156 635.84375 239.976562 C 636.558594 239.679688 637.136719 239.089844 637.714844 238.359375 C 638.296875 237.628906 638.875 236.746094 639.300781 235.863281 C 640.019531 232.65625 640.019531 229.542969 640.019531 229.542969 C 640.019531 228.515625 639.871094 227.480469 639.441406 226.3125 C 639.003906 225.136719 638.285156 224.253906 637.277344 223.226562 C 636.269531 222.34375 634.824219 221.460938 633.238281 220.871094 C 631.503906 220.285156 629.339844 219.988281 626.886719 219.988281 C 621.691406 219.988281 618.222656 221.015625 616.496094 223.21875 C 614.621094 225.421875 613.753906 227.917969 613.753906 231.003906 L 600.613281 231.003906 L 600.613281 227.175781 C 600.613281 224.527344 601.050781 222.03125 602.058594 219.828125 C 603.066406 217.472656 604.660156 215.5625 606.824219 213.796875 C 608.988281 212.03125 611.730469 210.710938 615.050781 209.6875 C 618.371094 208.664062 622.269531 208.214844 627.039062 208.214844 L 626.878906 208.214844 Z M 640.191406 249.960938 C 640.039062 250.988281 639.472656 251.871094 638.605469 252.316406 C 637.738281 252.90625 637.019531 253.199219 636.289062 253.496094 C 634.707031 254.082031 633.121094 254.671875 631.234375 255.261719 C 629.359375 255.992188 627.773438 256.582031 626.179688 257.027344 C 624.304688 257.617188 622.570312 258.347656 620.984375 258.933594 C 619.6875 259.523438 618.53125 260.253906 617.375 261.136719 C 616.507812 262.019531 615.640625 263.046875 614.773438 264.367188 C 614.054688 265.683594 613.617188 267.308594 613.617188 269.359375 C 613.617188 273.328125 614.484375 276.261719 616.359375 278.320312 C 618.230469 280.230469 621.703125 281.265625 626.75 281.265625 C 631.792969 281.265625 635.414062 280.238281 637.289062 278.179688 C 639.164062 276.117188 640.03125 273.1875 640.03125 269.511719 L 640.03125 250.113281 L 640.179688 249.960938 Z M 640.191406 249.960938 " fill-opacity="1" fill-rule="nonzero"/><path fill="#063a1c" d="M 703.277344 208.558594 L 700.386719 220.019531 C 698.234375 219.96875 694.464844 220.019531 694.464844 220.019531 C 691.722656 220.019531 689.40625 220.464844 687.683594 221.199219 C 685.949219 221.929688 684.652344 222.8125 683.785156 223.847656 C 682.917969 224.882812 682.199219 225.90625 682.050781 226.933594 C 681.761719 228.109375 681.609375 228.992188 681.609375 230.015625 L 681.609375 292.136719 L 668.46875 292.136719 L 668.46875 227.367188 C 668.46875 226.191406 668.617188 224.578125 669.046875 222.375 C 669.476562 220.171875 670.492188 218.113281 672.367188 216.050781 C 674.101562 213.992188 676.695312 212.082031 680.304688 210.609375 C 683.765625 209.140625 688.679688 208.257812 694.882812 208.257812 C 694.882812 208.257812 701.8125 208.257812 703.257812 208.550781 Z M 703.277344 208.558594 " fill-opacity="1" fill-rule="nonzero"/><path fill="#063a1c" d="M 737.488281 208.234375 C 743.703125 208.234375 747.878906 208.683594 751.488281 210.296875 C 754.949219 211.769531 757.703125 213.675781 759.425781 215.738281 C 761.160156 217.796875 762.316406 220 762.746094 222.058594 C 763.183594 224.261719 763.324219 225.886719 763.324219 227.054688 L 763.324219 234.695312 C 763.324219 236.464844 763.035156 238.523438 762.316406 240.726562 C 761.601562 242.929688 760.003906 245.285156 757.550781 247.78125 C 756.394531 249.101562 755.097656 249.984375 753.652344 250.570312 C 752.207031 251.160156 750.910156 251.75 749.753906 252.042969 C 748.457031 252.488281 747.011719 252.632812 745.566406 252.632812 L 733.871094 252.632812 C 731.128906 252.632812 728.8125 253.65625 726.789062 255.574219 C 724.765625 257.636719 723.757812 259.980469 723.757812 262.925781 L 723.757812 269.980469 C 723.757812 272.476562 724.199219 274.535156 725.203125 276.007812 C 725.644531 276.738281 726.070312 277.328125 726.648438 277.914062 C 727.230469 278.503906 727.945312 278.941406 728.964844 279.386719 C 729.832031 279.832031 730.839844 280.117188 732.132812 280.566406 C 733.429688 280.859375 735.164062 281.011719 737.191406 281.011719 C 739.214844 281.011719 741.957031 280.71875 743.542969 280.128906 C 745.128906 279.539062 746.144531 279.101562 746.863281 278.65625 C 748.160156 277.632812 749.175781 276.300781 749.605469 274.828125 C 750.183594 273.359375 750.324219 271.746094 750.324219 270.128906 L 763.464844 270.128906 L 763.464844 273.957031 C 763.464844 276.75 762.886719 279.398438 761.730469 281.894531 C 760.574219 284.25 758.699219 286.453125 756.246094 288.21875 C 754.511719 289.539062 752.058594 290.574219 749.027344 291.597656 C 745.996094 292.480469 741.945312 293.070312 737.328125 293.070312 C 732.710938 293.070312 730.828125 292.773438 728.234375 292.1875 C 725.632812 291.597656 723.46875 290.867188 721.457031 289.984375 C 719.582031 289.101562 717.996094 288.078125 716.6875 286.898438 C 715.394531 285.722656 714.375 284.542969 713.65625 283.375 C 711.785156 280.585938 710.914062 277.5 711.054688 273.96875 L 711.054688 227.390625 C 711.054688 226.070312 711.203125 224.445312 711.632812 222.394531 C 712.074219 220.335938 713.078125 218.132812 714.953125 216.070312 C 716.6875 214.011719 719.28125 212.101562 722.890625 210.632812 C 726.351562 209.160156 731.265625 208.277344 737.46875 208.277344 Z M 750.054688 231.011719 L 750.054688 229.539062 C 750.054688 228.65625 750.054688 227.632812 749.613281 226.457031 C 749.324219 225.277344 748.746094 224.253906 747.878906 223.371094 C 747.011719 222.34375 745.566406 221.605469 743.980469 220.871094 C 742.246094 220.140625 740.082031 219.847656 737.199219 219.847656 C 734.316406 219.847656 732.003906 220.140625 730.121094 220.871094 C 728.234375 221.605469 726.949219 222.34375 725.933594 223.371094 C 724.925781 224.253906 724.347656 225.277344 724.058594 226.457031 C 723.769531 227.632812 723.617188 228.515625 723.617188 229.398438 L 723.617188 245.863281 C 723.769531 244.980469 724.335938 244.097656 725.066406 243.507812 C 725.78125 242.917969 726.648438 242.480469 727.519531 242.1875 C 728.386719 241.894531 729.390625 241.597656 730.261719 241.597656 C 731.128906 241.597656 731.84375 241.445312 732.421875 241.445312 L 741.230469 241.445312 C 743.542969 241.445312 745.707031 240.5625 747.441406 238.796875 C 749.175781 237.03125 750.042969 234.972656 750.042969 232.625 L 750.042969 231.011719 Z M 750.054688 231.011719 " fill-opacity="1" fill-rule="nonzero"/><path fill="#063a1c" d="M 185.988281 183.113281 L 158.273438 211.324219 L 169.554688 222.808594 L 197.269531 194.59375 Z M 185.988281 183.113281 " fill-opacity="1" fill-rule="nonzero"/><path fill="#063a1c" d="M 122.601562 338.015625 L 138.554688 338.015625 L 138.554688 314.324219 L 122.601562 330.5625 Z M 122.601562 338.015625 " fill-opacity="1" fill-rule="nonzero"/><path fill="#063a1c" d="M 216.570312 242.726562 L 177.375 242.726562 L 177.375 258.964844 L 216.570312 258.964844 Z M 216.570312 242.726562 " fill-opacity="1" fill-rule="nonzero"/><path fill="#063a1c" d="M 138.554688 162.96875 L 122.601562 162.96875 L 122.601562 202.867188 L 138.554688 202.867188 Z M 138.554688 162.96875 " fill-opacity="1" fill-rule="nonzero"/><path fill="#063a1c" d="M 75.097656 183.015625 L 63.816406 194.496094 L 91.535156 222.710938 L 102.816406 211.226562 Z M 75.097656 183.015625 " fill-opacity="1" fill-rule="nonzero"/><g clip-path="url(#eeb2e634b7)"><path fill="#063a1c" d="M 83.792969 242.726562 L 44.597656 242.726562 L 44.597656 258.964844 L 83.792969 258.964844 Z M 83.792969 242.726562 " fill-opacity="1" fill-rule="nonzero"/></g><path fill="#063a1c" d="M 153.484375 264.335938 L 130.578125 287.851562 L 106.140625 264.285156 L 64.390625 306.882812 L 74.832031 317.511719 L 105.992188 285.78125 L 119.300781 299.332031 L 111.316406 307.464844 L 121.746094 318.089844 L 153.484375 285.78125 L 185.410156 318.28125 L 196.6875 306.804688 " fill-opacity="1" fill-rule="nonzero"/><path fill="#063a1c" d="M 270.785156 360.78125 C 266.167969 360.78125 262.070312 359.613281 258.492188 357.277344 C 254.910156 354.945312 252.097656 351.625 250.066406 347.332031 C 248.03125 343.039062 247.011719 337.972656 247.011719 332.15625 C 247.011719 326.339844 248.03125 321.234375 250.066406 316.941406 C 252.097656 312.648438 254.910156 309.320312 258.492188 306.976562 C 262.070312 304.628906 266.167969 303.453125 270.785156 303.453125 C 273.707031 303.453125 276.398438 303.917969 278.863281 304.84375 C 281.324219 305.765625 283.507812 307.054688 285.394531 308.722656 C 287.289062 310.386719 288.832031 312.324219 290.050781 314.546875 C 291.265625 316.769531 292.09375 319.164062 292.53125 321.742188 L 287.308594 321.742188 C 286.917969 319.824219 286.242188 318.050781 285.285156 316.445312 C 284.324219 314.832031 283.121094 313.429688 281.675781 312.234375 C 280.226562 311.035156 278.582031 310.101562 276.757812 309.441406 C 274.933594 308.78125 272.9375 308.445312 270.773438 308.445312 C 267.335938 308.445312 264.203125 309.359375 261.371094 311.175781 C 258.539062 313.003906 256.277344 315.671875 254.601562 319.195312 C 252.917969 322.71875 252.078125 327.042969 252.078125 332.15625 C 252.078125 337.273438 252.925781 341.597656 254.621094 345.117188 C 256.316406 348.640625 258.578125 351.300781 261.414062 353.097656 C 264.242188 354.894531 267.363281 355.796875 270.785156 355.796875 C 272.949219 355.796875 274.941406 355.460938 276.769531 354.800781 C 278.59375 354.140625 280.238281 353.207031 281.683594 352.011719 C 283.128906 350.8125 284.335938 349.402344 285.292969 347.777344 C 286.25 346.152344 286.929688 344.398438 287.316406 342.488281 L 292.542969 342.488281 C 292.125 345.039062 291.304688 347.414062 290.097656 349.625 C 288.882812 351.839844 287.328125 353.777344 285.441406 355.449219 C 283.546875 357.125 281.375 358.425781 278.910156 359.371094 C 276.449219 360.304688 273.738281 360.769531 270.796875 360.769531 Z M 270.785156 360.78125 " fill-opacity="1" fill-rule="nonzero"/><path fill="#063a1c" d="M 319.414062 360.933594 C 315.835938 360.933594 312.675781 360.007812 309.953125 358.183594 C 307.230469 356.34375 305.097656 353.796875 303.550781 350.539062 C 302.007812 347.28125 301.226562 343.535156 301.226562 339.3125 C 301.226562 335.089844 302.007812 331.234375 303.550781 327.976562 C 305.097656 324.71875 307.230469 322.167969 309.953125 320.332031 C 312.675781 318.496094 315.824219 317.582031 319.414062 317.582031 C 323.003906 317.582031 326.125 318.503906 328.859375 320.332031 C 331.589844 322.167969 333.734375 324.71875 335.28125 327.976562 C 336.824219 331.234375 337.601562 335.019531 337.601562 339.3125 C 337.601562 343.605469 336.835938 347.28125 335.300781 350.539062 C 333.765625 353.796875 331.628906 356.34375 328.898438 358.183594 C 326.167969 360.019531 323.003906 360.933594 319.414062 360.933594 Z M 319.414062 356.324219 C 322.238281 356.324219 324.628906 355.554688 326.59375 354 C 328.558594 352.445312 330.046875 350.386719 331.070312 347.816406 C 332.089844 345.242188 332.597656 342.410156 332.597656 339.3125 C 332.597656 336.21875 332.078125 333.335938 331.050781 330.746094 C 330.023438 328.15625 328.527344 326.085938 326.566406 324.523438 C 324.601562 322.960938 322.21875 322.179688 319.425781 322.179688 C 316.632812 322.179688 314.25 322.960938 312.304688 324.523438 C 310.351562 326.085938 308.867188 328.15625 307.828125 330.746094 C 306.800781 333.335938 306.28125 336.1875 306.28125 339.3125 C 306.28125 342.4375 306.792969 345.25 307.808594 347.816406 C 308.828125 350.386719 310.3125 352.445312 312.265625 354 C 314.21875 355.554688 316.605469 356.324219 319.425781 356.324219 Z M 319.414062 356.324219 " fill-opacity="1" fill-rule="nonzero"/><path fill="#063a1c" d="M 348.050781 360.027344 L 348.050781 318.140625 L 352.910156 318.140625 L 352.910156 324.65625 L 353.277344 324.65625 C 354.113281 322.503906 355.539062 320.789062 357.566406 319.5 C 359.589844 318.210938 361.890625 317.570312 364.464844 317.570312 C 364.882812 317.570312 365.324219 317.570312 365.792969 317.59375 C 366.261719 317.601562 366.660156 317.621094 367.007812 317.652344 L 367.007812 322.75 C 366.839844 322.699219 366.46875 322.644531 365.902344 322.574219 C 365.332031 322.515625 364.726562 322.484375 364.054688 322.484375 C 361.941406 322.484375 360.058594 322.949219 358.394531 323.875 C 356.726562 324.796875 355.421875 326.058594 354.472656 327.660156 C 353.527344 329.253906 353.058594 331.089844 353.058594 333.171875 L 353.058594 360.039062 L 348.050781 360.039062 Z M 348.050781 360.027344 " fill-opacity="1" fill-rule="nonzero"/><path fill="#063a1c" d="M 375.921875 375.699219 L 375.921875 318.140625 L 380.777344 318.140625 L 380.777344 326.199219 L 381.328125 326.199219 C 381.863281 324.917969 382.644531 323.621094 383.660156 322.300781 C 384.675781 320.980469 386.011719 319.855469 387.667969 318.953125 C 389.324219 318.039062 391.417969 317.582031 393.941406 317.582031 C 397.300781 317.582031 400.25 318.484375 402.773438 320.28125 C 405.296875 322.078125 407.28125 324.605469 408.699219 327.855469 C 410.125 331.101562 410.832031 334.886719 410.832031 339.210938 C 410.832031 343.535156 410.125 347.363281 408.71875 350.621094 C 407.300781 353.878906 405.335938 356.414062 402.804688 358.234375 C 400.273438 360.050781 397.320312 360.953125 393.929688 360.953125 C 391.476562 360.953125 389.402344 360.496094 387.726562 359.582031 C 386.042969 358.667969 384.695312 357.542969 383.679688 356.191406 C 382.664062 354.84375 381.863281 353.523438 381.304688 352.222656 L 380.898438 352.222656 L 380.898438 375.722656 L 375.894531 375.722656 Z M 393.292969 356.324219 C 395.996094 356.324219 398.269531 355.5625 400.121094 354.039062 C 401.976562 352.519531 403.382812 350.457031 404.359375 347.859375 C 405.328125 345.261719 405.816406 342.367188 405.816406 339.171875 C 405.816406 335.972656 405.335938 333.089844 404.378906 330.53125 C 403.421875 327.976562 402.007812 325.945312 400.140625 324.441406 C 398.277344 322.941406 395.996094 322.191406 393.292969 322.191406 C 390.589844 322.191406 388.386719 322.910156 386.542969 324.363281 C 384.6875 325.8125 383.28125 327.8125 382.304688 330.359375 C 381.335938 332.910156 380.847656 335.839844 380.847656 339.171875 C 380.847656 342.5 381.335938 345.445312 382.324219 348.03125 C 383.300781 350.621094 384.726562 352.648438 386.570312 354.121094 C 388.425781 355.59375 390.660156 356.335938 393.292969 356.335938 Z M 393.292969 356.324219 " fill-opacity="1" fill-rule="nonzero"/><path fill="#063a1c" d="M 437.367188 360.933594 C 433.785156 360.933594 430.625 360.007812 427.902344 358.183594 C 425.179688 356.34375 423.046875 353.796875 421.5 350.539062 C 419.957031 347.28125 419.179688 343.535156 419.179688 339.3125 C 419.179688 335.089844 419.957031 331.234375 421.5 327.976562 C 423.046875 324.71875 425.179688 322.167969 427.902344 320.332031 C 430.625 318.496094 433.777344 317.582031 437.367188 317.582031 C 440.953125 317.582031 444.074219 318.503906 446.808594 320.332031 C 449.539062 322.167969 451.683594 324.71875 453.230469 327.976562 C 454.773438 331.234375 455.550781 335.019531 455.550781 339.3125 C 455.550781 343.605469 454.785156 347.28125 453.25 350.539062 C 451.714844 353.796875 449.578125 356.34375 446.847656 358.183594 C 444.117188 360.019531 440.953125 360.933594 437.367188 360.933594 Z M 437.367188 356.324219 C 440.1875 356.324219 442.582031 355.554688 444.542969 354 C 446.507812 352.445312 447.996094 350.386719 449.019531 347.816406 C 450.039062 345.242188 450.546875 342.410156 450.546875 339.3125 C 450.546875 336.21875 450.027344 333.335938 449 330.746094 C 447.976562 328.15625 446.480469 326.085938 444.515625 324.523438 C 442.550781 322.960938 440.167969 322.179688 437.375 322.179688 C 434.582031 322.179688 432.199219 322.960938 430.253906 324.523438 C 428.300781 326.085938 426.816406 328.15625 425.777344 330.746094 C 424.75 333.335938 424.234375 336.1875 424.234375 339.3125 C 424.234375 342.4375 424.742188 345.25 425.757812 347.816406 C 426.777344 350.386719 428.261719 352.445312 430.214844 354 C 432.171875 355.554688 434.554688 356.324219 437.375 356.324219 Z M 437.367188 356.324219 " fill-opacity="1" fill-rule="nonzero"/><path fill="#063a1c" d="M 466.003906 360.027344 L 466.003906 318.140625 L 470.859375 318.140625 L 470.859375 324.65625 L 471.226562 324.65625 C 472.066406 322.503906 473.492188 320.789062 475.515625 319.5 C 477.539062 318.210938 479.84375 317.570312 482.414062 317.570312 C 482.832031 317.570312 483.273438 317.570312 483.742188 317.59375 C 484.210938 317.601562 484.609375 317.621094 484.957031 317.652344 L 484.957031 322.75 C 484.789062 322.699219 484.417969 322.644531 483.851562 322.574219 C 483.28125 322.515625 482.675781 322.484375 482.007812 322.484375 C 479.890625 322.484375 478.007812 322.949219 476.34375 323.875 C 474.675781 324.796875 473.371094 326.058594 472.421875 327.660156 C 471.476562 329.253906 471.007812 331.089844 471.007812 333.171875 L 471.007812 360.039062 L 466.003906 360.039062 Z M 466.003906 360.027344 " fill-opacity="1" fill-rule="nonzero"/><path fill="#063a1c" d="M 503.914062 360.972656 C 501.410156 360.972656 499.136719 360.484375 497.082031 359.511719 C 495.027344 358.539062 493.402344 357.097656 492.1875 355.199219 C 490.96875 353.300781 490.359375 351.007812 490.359375 348.304688 C 490.359375 346.234375 490.742188 344.488281 491.5 343.078125 C 492.253906 341.667969 493.351562 340.511719 494.777344 339.597656 C 496.203125 338.683594 497.878906 337.964844 499.804688 337.445312 C 501.730469 336.925781 503.863281 336.511719 506.195312 336.207031 C 508.480469 335.902344 510.414062 335.648438 512.007812 335.4375 C 513.605469 335.222656 514.820312 334.878906 515.667969 334.410156 C 516.515625 333.945312 516.933594 333.171875 516.933594 332.125 L 516.933594 331.152344 C 516.933594 329.273438 516.554688 327.671875 515.808594 326.320312 C 515.058594 324.972656 513.964844 323.933594 512.527344 323.214844 C 511.089844 322.496094 509.347656 322.128906 507.28125 322.128906 C 505.347656 322.128906 503.632812 322.433594 502.167969 323.042969 C 500.691406 323.652344 499.476562 324.453125 498.507812 325.4375 C 497.539062 326.421875 496.8125 327.507812 496.3125 328.675781 L 491.527344 327.03125 C 492.433594 324.757812 493.710938 322.929688 495.355469 321.5625 C 497.003906 320.191406 498.855469 319.175781 500.910156 318.546875 C 502.976562 317.90625 505.058594 317.59375 507.171875 317.59375 C 508.789062 317.59375 510.464844 317.816406 512.179688 318.25 C 513.894531 318.6875 515.488281 319.429688 516.964844 320.464844 C 518.441406 321.5 519.625 322.929688 520.535156 324.738281 C 521.441406 326.542969 521.898438 328.839844 521.898438 331.609375 L 521.898438 360.050781 L 517.003906 360.050781 L 517.003906 353.421875 L 516.636719 353.421875 C 516.046875 354.691406 515.179688 355.90625 514.023438 357.074219 C 512.867188 358.234375 511.449219 359.175781 509.773438 359.90625 C 508.089844 360.628906 506.136719 360.992188 503.902344 360.992188 Z M 504.652344 356.4375 C 507.152344 356.4375 509.328125 355.878906 511.160156 354.75 C 512.996094 353.625 514.421875 352.113281 515.429688 350.214844 C 516.4375 348.316406 516.933594 346.226562 516.933594 343.953125 L 516.933594 337.992188 C 516.566406 338.339844 515.96875 338.652344 515.128906 338.925781 C 514.292969 339.199219 513.34375 339.445312 512.277344 339.636719 C 511.210938 339.832031 510.132812 340.011719 509.058594 340.164062 C 507.980469 340.316406 507.03125 340.441406 506.226562 340.542969 C 503.941406 340.816406 501.988281 341.261719 500.351562 341.890625 C 498.71875 342.511719 497.480469 343.363281 496.632812 344.4375 C 495.785156 345.515625 495.367188 346.875 495.367188 348.519531 C 495.367188 350.164062 495.777344 351.613281 496.582031 352.792969 C 497.390625 353.96875 498.496094 354.863281 499.894531 355.492188 C 501.289062 356.121094 502.875 356.425781 504.640625 356.425781 Z M 504.652344 356.4375 " fill-opacity="1" fill-rule="nonzero"/><path fill="#063a1c" d="M 548.425781 318.140625 L 548.425781 322.566406 L 528.839844 322.566406 L 528.839844 318.140625 Z M 534.953125 308.171875 L 539.957031 308.171875 L 539.957031 350.144531 C 539.957031 352.214844 540.417969 353.734375 541.324219 354.722656 C 542.230469 355.695312 543.617188 356.082031 545.484375 355.878906 C 545.820312 355.878906 546.25 355.835938 546.75 355.746094 C 547.246094 355.65625 547.726562 355.5625 548.164062 355.460938 L 549.191406 359.847656 C 548.652344 360.019531 548.054688 360.160156 547.40625 360.261719 C 546.757812 360.363281 546.101562 360.425781 545.433594 360.445312 C 542.144531 360.667969 539.570312 359.875 537.726562 358.058594 C 535.871094 356.253906 534.945312 353.714844 534.945312 350.476562 L 534.945312 308.171875 Z M 534.953125 308.171875 " fill-opacity="1" fill-rule="nonzero"/><path fill="#063a1c" d="M 573.054688 360.933594 C 569.203125 360.933594 565.863281 360.007812 563.0625 358.183594 C 560.25 356.34375 558.074219 353.808594 556.539062 350.558594 C 555.003906 347.3125 554.238281 343.574219 554.238281 339.351562 C 554.238281 335.132812 554.996094 331.386719 556.5 328.105469 C 558.007812 324.839844 560.121094 322.261719 562.832031 320.382812 C 565.546875 318.503906 568.695312 317.570312 572.273438 317.570312 C 574.527344 317.570312 576.703125 317.988281 578.796875 318.828125 C 580.878906 319.671875 582.753906 320.941406 584.429688 322.65625 C 586.097656 324.371094 587.410156 326.535156 588.367188 329.152344 C 589.324219 331.78125 589.804688 334.855469 589.804688 338.410156 L 589.804688 340.621094 L 557.519531 340.621094 L 557.519531 336.238281 L 587.113281 336.238281 L 584.828125 337.882812 C 584.828125 334.886719 584.320312 332.199219 583.324219 329.824219 C 582.316406 327.445312 580.878906 325.578125 579.015625 324.199219 C 577.152344 322.828125 574.90625 322.140625 572.273438 322.140625 C 569.644531 322.140625 567.398438 322.839844 565.445312 324.238281 C 563.492188 325.640625 561.976562 327.488281 560.878906 329.78125 C 559.78125 332.074219 559.242188 334.601562 559.242188 337.355469 L 559.242188 339.972656 C 559.242188 343.242188 559.8125 346.113281 560.9375 348.570312 C 562.066406 351.027344 563.671875 352.945312 565.742188 354.304688 C 567.816406 355.664062 570.261719 356.34375 573.082031 356.34375 C 574.996094 356.34375 576.683594 356.03125 578.148438 355.410156 C 579.605469 354.792969 580.839844 353.960938 581.828125 352.921875 C 582.824219 351.886719 583.5625 350.75 584.050781 349.535156 L 588.796875 351.066406 C 588.160156 352.8125 587.132812 354.4375 585.726562 355.9375 C 584.3125 357.441406 582.546875 358.648438 580.410156 359.550781 C 578.277344 360.464844 575.824219 360.921875 573.054688 360.921875 Z M 573.054688 360.933594 " fill-opacity="1" fill-rule="nonzero"/></svg>